<?xml version="1.0" encoding="utf-8"?>
<!-- Generator: Adobe Illustrator 13.0.0, SVG Export Plug-In . SVG Version: 6.00 Build 14948)  -->
<!DOCTYPE svg PUBLIC "-//W3C//DTD SVG 1.1//EN" "http://www.w3.org/Graphics/SVG/1.1/DTD/svg11.dtd">
<svg version="1.1" id="Layer_1" xmlns="http://www.w3.org/2000/svg" xmlns:xlink="http://www.w3.org/1999/xlink" x="0px" y="0px"
	 width="800px" height="800px" viewBox="0 0 800 800" enable-background="new 0 0 800 800" xml:space="preserve">
<circle cx="397.65" cy="402.962" r="141.462"/>
<path d="M400,231.25h338.662c-62.149-125-191.5-210.206-341.012-210.206c-121.044,0-228.869,57.331-298.525,145.443l132.019,223.425
	C237.594,303,300,231.688,400,231.25z M750.787,256.25H489.338c46.269,37.5,76.868,86.775,76.868,146.057
	c0,29.144-7.394,53.943-20.425,85.193h0.094L372.394,784.443c8.344,0.544,16.763-0.137,25.25-0.137
	c210.057,0,380.344-173.413,380.344-383.469C777.994,350.837,768.325,306.25,750.787,256.25L750.787,256.25z M397.65,571.531
	c-72.95,0-135.069-46.338-158.55-111.182L81.688,191.156c-40.656,60.538-64.394,133.406-64.394,211.807
	c0,191.449,141.462,349.824,325.556,376.399l131.226-226.118C451.131,564.938,425.156,571.531,397.65,571.531z"/>
</svg>
