<?xml version="1.0" encoding="utf-8"?>
<!-- Generator: Adobe Illustrator 13.0.0, SVG Export Plug-In . SVG Version: 6.00 Build 14948)  -->
<!DOCTYPE svg PUBLIC "-//W3C//DTD SVG 1.1//EN" "http://www.w3.org/Graphics/SVG/1.1/DTD/svg11.dtd">
<svg version="1.1" id="ff6c2c6f-bb99-48ca-bf0f-ae1c98c215e0"
	 xmlns="http://www.w3.org/2000/svg" xmlns:xlink="http://www.w3.org/1999/xlink" x="0px" y="0px" width="989px" height="781.43px"
	 viewBox="0 0 989 781.43" enable-background="new 0 0 989 781.43" xml:space="preserve">
<title>timeline</title>
<path fill="#D6D6D6" d="M491.261,239.428c36.928-6.48,79.841-5.354,126.116,0c-9.387-53.242-9.816-105.389,0-156.273H491.261
	C481.945,134.83,481.945,187.753,491.261,239.428z"/>
<rect x="528.909" y="74.236" fill="#3F3D56" width="43.868" height="14.394"/>
<path opacity="0.1" enable-background="new    " d="M393.088,547.981c36.928-6.48,79.842-5.354,126.117,0
	c-9.387-53.243-9.816-105.39,0-156.274H393.088C383.773,443.383,383.773,496.307,393.088,547.981z"/>
<path fill="#D6D6D6" d="M387.418,540.691c36.927-6.48,79.842-5.355,126.117,0c-9.389-53.242-9.816-105.39,0-156.274H387.418
	C378.103,436.093,378.103,489.016,387.418,540.691z"/>
<rect x="425.051" y="375.5" fill="#3F3D56" width="43.87" height="14.393"/>
<path fill="none" stroke="#3F3D56" stroke-width="2" stroke-miterlimit="10" d="M279.041,285.598
	c0,0,48.916-138.356,157.893-139.579"/>
<path fill="#3F3D56" d="M446.71,146.278c-4.642,1.62-10.408,4.382-14.021,7.387l2.963-7.639l-2.608-7.768
	C436.513,141.426,442.15,144.479,446.71,146.278z"/>
<path fill="none" stroke="#3F3D56" stroke-width="2" stroke-miterlimit="10" d="M283.09,338.248c0,0-4.423,111.327,59.179,126.482"
	/>
<path fill="#3F3D56" d="M351.94,466.227c-4.82,0.939-10.919,2.893-14.912,5.361l3.993-7.152l-1.506-8.049
	C342.512,459.999,347.672,463.797,351.94,466.227z"/>
<path fill="none" stroke="#3F3D56" stroke-width="2" stroke-miterlimit="10" d="M296.05,301.797c0,0,343.942-57.332,402.967,13.592"
	/>
<path fill="#3F3D56" d="M704.29,323.667c-3.97-2.892-9.55-6.042-14.069-7.29l7.953-1.936l4.861-6.585
	C702.443,312.522,703.173,318.889,704.29,323.667z"/>
<g opacity="0.1">
	<ellipse fill="#6C63FF" cx="494.5" cy="680.464" rx="400.546" ry="26.73"/>
</g>
<path opacity="0.1" enable-background="new    " d="M846.251,481.229c-32.716,18.306-65.292,46.26-97.8,79.623
	c-26.341-47.205-58.918-87.918-98.666-121.184l97.8-79.623C787.433,394.236,820.847,435.276,846.251,481.229z"/>
<path fill="#D6D6D6" d="M847.871,474.749c-32.716,18.306-65.293,46.259-97.8,79.622c-26.341-47.206-58.919-87.917-98.665-121.184
	l97.799-79.623C789.053,387.757,822.467,428.797,847.871,474.749z"/>
<rect x="679.986" y="382.683" transform="matrix(0.7755 -0.6314 0.6314 0.7755 -88.564 530.7135)" fill="#3F3D56" width="43.87" height="14.395"/>
<rect x="696.669" y="426.385" transform="matrix(0.7755 -0.6314 0.6314 0.7755 -107.3856 561.3202)" fill="#6C63FF" width="77.762" height="10.529"/>
<linearGradient id="SVGID_1_" gradientUnits="userSpaceOnUse" x1="695.377" y1="749.7412" x2="695.377" y2="483.6836" gradientTransform="matrix(0.9992 -0.0403 0.0403 0.9992 62.4161 -33.6333)">
	<stop  offset="0" style="stop-color:#808080"/>
	<stop  offset="0.54" style="stop-color:#808080"/>
	<stop  offset="1" style="stop-color:#808080"/>
</linearGradient>
<path fill="url(#SVGID_1_)" d="M854.262,670.168c-0.473-0.746-1.066-1.407-1.757-1.959c-3.54-3.337-5.185-8.252-6.06-13.058
	c-0.875-4.802-1.126-9.72-2.527-14.433c-0.763-2.413-1.717-4.761-2.852-7.023c-0.81-1.726-1.831-5.127-3.312-6.333
	c-0.293-0.253-0.644-0.424-1.021-0.503c-0.698-1.486-1.696-2.814-2.932-3.895c-2.315-2.1-5.145-3.768-6.691-6.481
	c-0.423-0.944-0.949-1.841-1.562-2.674c-1.045-1.15-2.697-1.62-3.663-2.835c-1.255-1.57-0.972-3.814-0.81-5.823
	c0.163-2.009,0-4.399-1.732-5.442c-1.037-0.641-2.373-0.585-3.451-1.143c-1.619-0.811-2.26-2.859-2.229-4.682
	c0.034-1.822,0.6-3.597,0.746-5.41c0.453-5.801-3.37-11.568-1.896-17.189c0.559-2.131,1.84-3.985,2.787-5.961
	c0.327-0.662,0.598-1.351,0.809-2.057c2.527,1.002,5.184,1.64,7.891,1.895c-4.463-10.004-3.33-21.643-5.412-32.4l0.268-0.372
	c2.104-2.77,3.298-6.124,3.419-9.599c0-4.051-1.872-7.752-2.714-11.664c-0.721-3.338-0.689-6.812-1.621-10.094
	c-0.646-2.033-1.503-3.993-2.559-5.848c-1.01-1.869-2.071-3.709-3.184-5.523c-1.037-3.435-2.076-6.869-3.119-10.303
	c-1.457-4.859-2.956-9.721-5.791-13.885c-1.037-1.531-1.353-4.617-2.948-5.549c-1.298-0.668-2.767-0.924-4.212-0.729
	c-2.252-1.264-4.228-3.086-4.512-5.58c-0.029-0.547,0.025-1.094,0.162-1.621h0.275c3.564-0.332,5.369-3.476,7.225-6.221
	c2.996-4.465,1.855-10.489,0-15.561c-0.461-1.6-1.294-3.067-2.43-4.283c-2.6-2.432-6.715-1.889-10.068-3.062
	c-1.086-0.48-2.197-0.898-3.33-1.256c-2.227-0.527-4.56,0.203-6.6,1.23c-2.043,1.031-3.945,2.357-6.082,3.176
	c-2.14,0.818-4.78,1.449-5.308,3.645c-0.147,0.74-0.084,1.506,0.18,2.212c0.493,1.403,1.358,2.649,2.503,3.604
	c-3.479,7.173-0.483,15.807,6.69,19.285c0.682,0.33,1.389,0.607,2.114,0.826c0.615,0.979,1.19,1.983,1.718,3.021
	c0.938,1.815,1.733,3.953,1.407,5.897c-0.585,0.619-1.127,1.279-1.62,1.976c-2.325,3.239-3.646,7.048-4.86,10.83
	c-1.633,4.843-2.939,9.789-3.911,14.806c-1.976,4.196-4.392,8.214-5.823,12.629c-2.566,0.006-5.123-0.334-7.598-1.013l-6.837-1.556
	c-2.38-0.535-4.859-1.125-6.723-2.689c-0.988-0.81-1.758-1.887-2.762-2.697c-1.005-0.809-3.021-1.74-4.124-1.077
	c-0.201,0.123-0.389,0.267-0.559,0.429c-1.003-2.031-3.465,3.152-4.633,1.232c-1.668-2.762-7.525,0.438-10.684-0.08
	c-1.93-0.311-3.902,0.146-5.5,1.271c-1.846,1.319-3.004,4.05-1.619,5.897c0.344,0.414,0.719,0.801,1.125,1.158
	c0.941,1.076,1.777,2.236,2.504,3.467c2.494,3.588,8.236,0.422,12.594,1.248c-0.096,0.273,3.056-6.555,2.957-6.271
	c-0.574,1.677-1.797,3.718-1.49,5.468l30.408,10.408c1.949,0.793,4.02,1.248,6.123,1.344c0.82-0.008,1.637-0.113,2.431-0.314v1.555
	v0.057c0.083,10.683-1.621,21.303-1.936,31.979c-0.058,1.943,0,4.05,1.23,5.572c1.376,1.67,3.825,1.992,5.954,1.619
	c0.508-0.081,1.012-0.191,1.506-0.331c0.721,2.685,1.24,5.419,1.555,8.183l2.018,14.385c0.258,1.48,0.365,2.984,0.316,4.487
	c-0.234,3.386-2.025,6.431-3.322,9.565c-1.295,3.135-2.064,6.877-0.364,9.809c0.534,0.908,1.272,1.687,1.75,2.625
	c0.607,1.452,0.884,3.021,0.81,4.594c0.125,4.373,0.244,8.742,0.357,13.105c-0.355-0.051-0.716,0.023-1.021,0.211
	c-1.685,1.304-1.499,7.557-1.621,9.494c-0.129,3.24,0,6.545-0.178,9.815c-0.227,4.424-0.956,8.807-2.171,13.065
	c-0.292,1.383-0.93,2.667-1.854,3.734c-0.949,0.822-2.079,1.406-3.297,1.709c-4.035,1.262-8.256,1.834-12.482,1.692
	c-1.707-0.048-3.49-0.218-5.078,0.438c-1.588,0.657-2.867,2.431-2.293,4.05c0.495,1.361,1.994,2.01,3.346,2.52
	c3.088,1.075,6.069,2.433,8.91,4.051c1.095,0.743,2.244,1.398,3.442,1.959c1.149,0.414,2.339,0.707,3.548,0.875l14.361,2.43
	c2.94,0.512,6.479,0.811,8.352-1.619c1.012-1.312,1.158-3.095,1.109-4.755c-0.081-3.239-0.729-6.544-0.308-9.776
	c0.319-1.918,0.824-3.801,1.507-5.622l4.292-12.53c1.442-4.27,2.9-8.57,3.46-13.041c0.201-1.62,0.186-3.46-1.053-4.479
	c-0.316-0.253-0.68-0.442-1.069-0.551c-0.05-3.904-0.56-7.81-0.341-11.712c0.057-0.98,0.154-1.953,0.234-2.925
	c0.754,0.712,1.425,1.506,2.002,2.365c1.385,2.162,1.895,5.03,4.008,6.479c1.799,1.223,4.465,1.167,5.727,2.949
	c0.406,0.682,0.712,1.419,0.908,2.188c0.733,1.912,1.834,3.661,3.24,5.15c0.483,1.776,1.154,3.498,2,5.136l3.564,7.532
	c1.213,2.707,2.564,5.35,4.051,7.916c1.13,1.617,2.041,3.376,2.712,5.232c1.143,4.01-0.721,8.398-3.667,11.34
	c-2.95,2.939-6.838,4.641-10.668,6.221c-0.406,0.134-0.777,0.355-1.087,0.646c-0.331,0.395-0.509,0.896-0.493,1.41
	c0,1.872,1.538,3.467,3.305,4.05c1.805,0.478,3.695,0.547,5.533,0.203c10.351-1.256,20.67-3.79,29.822-8.812
	c1.367-0.654,2.58-1.589,3.557-2.746C854.649,673.266,854.885,671.604,854.262,670.168z"/>
<path fill="#2F2E41" d="M810.514,488.551c1.729,2.646,3.35,5.363,4.859,8.148c1.057,1.84,1.914,3.782,2.561,5.801
	c0.939,3.239,0.914,6.699,1.619,10.012c0.811,3.887,2.705,7.598,2.705,11.574c-0.123,3.453-1.318,6.781-3.418,9.525
	c-2.095,2.721-4.492,5.195-7.145,7.379c-6.115-15.847-9.532-32.604-10.107-49.579c-0.08-2.356-0.096-4.779,0.762-6.975
	c0.525-1.37,3.055-5.144,4.681-3.661c0.593,0.543,0.745,2.98,1.11,3.798C808.828,485.959,809.621,487.289,810.514,488.551z"/>
<path opacity="0.1" enable-background="new    " d="M810.514,488.551c1.729,2.646,3.35,5.363,4.859,8.148
	c1.057,1.84,1.914,3.782,2.561,5.801c0.939,3.239,0.914,6.699,1.619,10.012c0.811,3.887,2.705,7.598,2.705,11.574
	c-0.123,3.453-1.318,6.781-3.418,9.525c-2.095,2.721-4.492,5.195-7.145,7.379c-6.115-15.847-9.532-32.604-10.107-49.579
	c-0.08-2.356-0.096-4.779,0.762-6.975c0.525-1.37,3.055-5.144,4.681-3.661c0.593,0.543,0.745,2.98,1.11,3.798
	C808.828,485.959,809.621,487.289,810.514,488.551z"/>
<path fill="#FBBEBE" d="M723.561,497.396c-3.168-0.519-6.684-0.268-9.146,1.789c-1.485,1.263-2.426,3.053-2.624,4.991
	c-0.211,2.251,1.095,4.907,3.345,5.087c0.542,0.006,1.085-0.029,1.62-0.105c1.424-0.011,2.844,0.107,4.244,0.348
	c5.598,0.525,11.104-1.695,14.768-5.962c1.935-2.39-0.617-3.476-2.9-3.96C729.74,498.919,726.688,497.914,723.561,497.396z"/>
<path fill="#3F3D56" d="M777.732,570.539l2.01,14.271c0.255,1.472,0.358,2.964,0.308,4.457c-0.235,3.36-2.024,6.382-3.313,9.492
	c-1.289,3.111-2.074,6.83-0.363,9.721c0.525,0.898,1.264,1.67,1.74,2.6c0.605,1.443,0.884,3.004,0.81,4.568l0.552,20.25
	c6.253,0.431,12.528,0.398,18.775-0.097c0.246,0.009,0.486-0.069,0.681-0.22c0.165-0.206,0.249-0.465,0.235-0.729
	c0.274-4.738-0.551-9.484-0.283-14.224c0.097-1.733,0.34-3.466,0.372-5.2c0.098-7.055-3.387-13.963-2.333-20.945
	c0.332-1.76,0.764-3.499,1.297-5.211c3.329-12.107,2.624-24.914,1.886-37.452c0.015-0.205-0.043-0.407-0.161-0.575
	c-0.12-0.117-0.273-0.198-0.438-0.234c-7.193-2.151-14.982-0.669-20.882,3.975c-0.884,0.715-3.111,1.396-3.692,2.246
	c-0.811,1.19,0.249,2.364,0.719,3.627C776.692,564.002,777.391,567.248,777.732,570.539z"/>
<path opacity="0.1" enable-background="new    " d="M777.732,570.539l2.01,14.271c0.255,1.472,0.358,2.964,0.308,4.457
	c-0.235,3.36-2.024,6.382-3.313,9.492c-1.289,3.111-2.074,6.83-0.363,9.721c0.525,0.898,1.264,1.67,1.74,2.6
	c0.605,1.443,0.884,3.004,0.81,4.568l0.552,20.25c6.253,0.431,12.528,0.398,18.775-0.097c0.246,0.009,0.486-0.069,0.681-0.22
	c0.165-0.206,0.249-0.465,0.235-0.729c0.274-4.738-0.551-9.484-0.283-14.224c0.097-1.733,0.34-3.466,0.372-5.2
	c0.098-7.055-3.387-13.963-2.333-20.945c0.332-1.76,0.764-3.499,1.297-5.211c3.329-12.107,2.624-24.914,1.886-37.452
	c0.015-0.205-0.043-0.407-0.161-0.575c-0.12-0.117-0.273-0.198-0.438-0.234c-7.193-2.151-14.982-0.669-20.882,3.975
	c-0.884,0.715-3.111,1.396-3.692,2.246c-0.811,1.19,0.249,2.364,0.719,3.627C776.692,564.002,777.391,567.248,777.732,570.539z"/>
<path fill="#3F3D56" d="M815.261,566.254c-0.948,1.971-2.22,3.807-2.787,5.923c-1.472,5.58,2.343,11.341,1.887,17.059
	c-0.146,1.798-0.704,3.563-0.745,5.37c-0.039,1.807,0.626,3.807,2.229,4.641c1.077,0.559,2.43,0.503,3.442,1.134
	c1.71,1.037,1.904,3.419,1.735,5.403c-0.171,1.982-0.456,4.221,0.809,5.783c0.963,1.208,2.615,1.668,3.654,2.811
	c0.617,0.824,1.141,1.711,1.562,2.65c1.547,2.697,4.374,4.357,6.691,6.43c2.315,2.075,4.275,5.241,3.24,8.174
	c-0.762,2.162-2.9,3.483-4.957,4.505c-3.755,1.852-7.717,3.25-11.803,4.162c-0.438,0.138-0.902,0.162-1.352,0.073
	c-0.457-0.166-0.863-0.445-1.183-0.811c-2.391-2.332-4.86-4.785-5.962-7.946c-0.197-0.763-0.504-1.494-0.908-2.17
	c-1.264-1.768-3.928-1.71-5.725-2.924c-2.107-1.434-2.617-4.286-3.996-6.433c-1.374-2.145-3.393-3.418-4.859-5.313
	c-2.477-3.142-3.086-7.337-4.859-10.927c-0.847-1.471-1.62-2.986-2.315-4.535c-0.606-1.903-0.979-3.872-1.11-5.865
	c-1.142-9.452-4.05-18.984-2.219-28.35c0.404-2.064,1.029-4.05,1.287-6.172c0.445-3.678-0.258-7.428,0.285-11.098
	c0.023-0.928,0.475-1.795,1.223-2.348c0.437-0.199,0.913-0.299,1.393-0.293c4.803-0.251,9.617-0.143,14.402,0.326
	c2.431,0.242,5.152,0.736,6.609,2.712c1.238,1.703,1.175,3.985,1.571,6.052c0.493,2.536,1.782,3.93,3.134,5.922
	C816.988,562.191,816.289,564.197,815.261,566.254z"/>
<path fill="#2F2E41" d="M796.631,632.1c1.279,0,2.697-0.081,3.685,0.736c1.232,1.006,1.248,2.86,1.054,4.439
	c-0.566,4.438-2.016,8.707-3.467,12.959l-4.309,12.638c-0.682,1.807-1.186,3.675-1.506,5.58c-0.422,3.239,0.227,6.479,0.307,9.72
	c0,1.619-0.105,3.419-1.117,4.715c-1.831,2.357-5.402,2.082-8.343,1.619l-14.346-2.43c-1.21-0.164-2.399-0.457-3.548-0.875
	c-1.2-0.547-2.352-1.194-3.443-1.936c-2.838-1.622-5.82-2.979-8.909-4.051c-1.345-0.51-2.853-1.149-3.337-2.503
	c-0.575-1.62,0.705-3.394,2.292-4.05s3.362-0.486,5.08-0.429c4.224,0.136,8.439-0.437,12.473-1.692
	c1.214-0.299,2.341-0.879,3.29-1.695c0.926-1.054,1.564-2.328,1.855-3.7c1.221-4.222,1.948-8.569,2.17-12.96
	c0.17-3.24,0.057-6.479,0.186-9.719c0.081-1.929-0.105-8.101,1.579-9.42c1.288-0.99,6.585,1.732,8.327,2.137
	C789.894,631.905,793.264,632.212,796.631,632.1z"/>
<path fill="#2F2E41" d="M843.861,641.082c1.401,4.649,1.621,9.551,2.526,14.322c0.908,4.77,2.513,9.647,6.052,12.96
	c0.691,0.545,1.285,1.2,1.758,1.943c0.61,1.413,0.375,3.052-0.607,4.236c-0.98,1.147-2.192,2.074-3.557,2.721
	c-9.145,4.999-19.439,7.51-29.815,8.756c-1.833,0.352-3.722,0.284-5.524-0.193c-1.766-0.601-3.328-2.188-3.295-4.05
	c-0.018-0.51,0.154-1.006,0.485-1.395c0.312-0.293,0.686-0.515,1.093-0.646c3.824-1.565,7.705-3.24,10.66-6.174
	c2.957-2.932,4.811-7.289,3.67-11.227c-0.668-1.844-1.581-3.59-2.716-5.191c-1.479-2.549-2.831-5.172-4.05-7.855l-3.562-7.478
	c-1.045-2.187-2.098-4.437-2.277-6.853c4.478,0.205,8.95-0.511,13.141-2.105c1.956-0.795,3.779-1.888,5.401-3.239
	c1.378-1.151,2.633-3.298,4.487-1.79c1.49,1.197,2.43,4.567,3.305,6.285C842.164,636.353,843.109,638.686,843.861,641.082z"/>
<path fill="#FBBEBE" d="M791.633,455.446c0.355,3.103,3.369,5.159,6.244,6.383l-18.199,5.839c1.174-2.25,0.225-4.997-0.939-7.289
	c-0.949-1.805-2.031-3.539-3.241-5.182c-0.178-0.261-0.38-0.576-0.251-0.861c0.115-0.189,0.297-0.331,0.512-0.396
	c3.74-1.668,7.597-3.393,11.688-4c1.183-0.178,3.418-0.648,4.301,0.55C792.629,451.688,791.463,454.014,791.633,455.446z"/>
<path opacity="0.1" enable-background="new    " d="M791.633,455.446c0.355,3.103,3.369,5.159,6.244,6.383l-18.199,5.839
	c1.174-2.25,0.225-4.997-0.939-7.289c-0.949-1.805-2.031-3.539-3.241-5.182c-0.178-0.261-0.38-0.576-0.251-0.861
	c0.115-0.189,0.297-0.331,0.512-0.396c3.74-1.668,7.597-3.393,11.688-4c1.183-0.178,3.418-0.648,4.301,0.55
	C792.629,451.688,791.463,454.014,791.633,455.446z"/>
<circle fill="#FBBEBE" cx="781.054" cy="443.693" r="14.271"/>
<path fill="#2F2E41" d="M768.717,561.144c1.386,1.62,3.824,1.976,5.954,1.62c4.981-0.81,9.058-4.48,13.933-5.809
	c5.977-1.619,12.305,0.471,17.949,3.014c5.646,2.543,11.26,5.629,17.432,6.115c-5.581-12.439-2.389-27.418-7.727-39.965
	c-1.305-3.07-3.127-6.027-3.42-9.348c-0.364-4.122,1.693-8.1,2.01-12.197c0.29-3.654-0.811-7.291-1.863-10.766
	c-1.302-4.277-2.604-8.557-3.904-12.84c-1.457-4.785-2.957-9.646-5.783-13.771c-1.046-1.515-1.362-4.575-2.949-5.499
	c-3.467-2-8.724,0.526-12.482,0.664c-3.758,0.137-7.185,2.811-9.38,5.824c-2.323,3.239-3.646,6.998-4.86,10.756
	c-1.936,5.596-3.381,11.35-4.317,17.196c-0.119,0.874-0.225,1.749-0.308,2.632c-0.811,8.318,0.373,16.687,0.438,25.038v0.055
	c0.083,10.604-1.62,21.143-1.936,31.737C767.471,557.579,767.471,559.661,768.717,561.144z"/>
<path opacity="0.1" enable-background="new    " d="M769.431,523.818c2.795-0.705,5.321-2.51,7.492-4.479
	c1.876-1.672,3.546-3.562,4.973-5.631c1.798-2.826,3.236-5.865,4.286-9.047c3-8.435,4.907-17.219,5.67-26.139
	c0.211-2.43,0.276-5.029-1.174-6.958c-1.674-2.153-4.611-2.868-7.088-1.726c-1.912,0.938-3.151,2.826-4.301,4.626
	c-2.277,3.588-4.568,7.207-6.035,11.192c-0.648,1.768-1.127,3.59-1.758,5.363c-0.645,1.748-1.385,3.46-2.219,5.127
	c-0.121,0.875-0.227,1.749-0.309,2.632C768.215,507.101,769.365,515.459,769.431,523.818z"/>
<path fill="#2F2E41" d="M790.637,470.025c1.449,1.929,1.384,4.561,1.182,6.959c-0.764,8.924-2.67,17.709-5.67,26.146
	c-1.043,3.182-2.482,6.217-4.285,9.04c-1.425,2.069-3.094,3.959-4.973,5.63c-2.752,2.518-6.107,4.754-9.84,4.795
	c-2.103-0.103-4.172-0.555-6.125-1.337l-30.383-10.327c-0.308-1.732,0.914-3.751,1.49-5.419l1.619-4.812
	c0.463-1.327,0.996-2.754,2.203-3.475s3.119,0.268,4.124,1.062c1.004,0.794,1.766,1.864,2.754,2.683
	c1.871,1.555,4.342,2.13,6.723,2.664l6.83,1.539c2.477,0.671,5.03,1.008,7.597,1.003c1.904-5.808,5.523-10.935,7.573-16.692
	c0.633-1.773,1.11-3.596,1.767-5.354c1.459-3.994,3.759-7.615,6.034-11.195c1.142-1.805,2.382-3.693,4.302-4.625
	C786.028,467.16,788.967,467.873,790.637,470.025z"/>
<path fill="#2F2E41" d="M785.606,446.908c-0.11-0.938-0.401-1.846-0.858-2.672c-0.494-0.845-1.475-1.277-2.431-1.07
	c-1.426,0.445-1.903,2.658-3.395,2.73c-1.002,0.05-1.724-0.973-2.04-1.936c-0.315-0.965-0.487-2.043-1.24-2.723
	c-0.523-0.391-1.127-0.668-1.765-0.809c-3.46-1.094-7.031-3.119-8.183-6.561c-0.271-0.7-0.336-1.463-0.186-2.195
	c0.527-2.18,3.24-2.828,5.307-3.623c2.064-0.793,4.05-2.131,6.074-3.143c2.025-1.013,4.374-1.749,6.602-1.23
	c1.131,0.357,2.242,0.773,3.328,1.248c3.354,1.157,7.46,0.615,10.061,3.037c1.135,1.205,1.969,2.662,2.43,4.252
	c1.814,5.03,2.965,11.008-0.041,15.438c-1.854,2.729-3.652,5.849-7.217,6.173C787.907,454.191,786.262,450.408,785.606,446.908z"/>
<g opacity="0.1">
	<path d="M779.273,442.244c-0.318-0.956-0.488-2.043-1.234-2.723c-0.522-0.391-1.125-0.669-1.766-0.81
		c-3.466-1.093-7.029-3.118-8.189-6.562c-0.264-0.699-0.324-1.461-0.178-2.193c0.083-0.346,0.229-0.672,0.43-0.966
		c-1.319,0.575-2.47,1.338-2.795,2.683c-0.149,0.734-0.084,1.496,0.186,2.195c1.15,3.441,4.723,5.467,8.184,6.561
		c0.638,0.143,1.24,0.418,1.765,0.811c0.753,0.68,0.915,1.766,1.239,2.722c0.325,0.955,1.037,1.984,2.041,1.935
		c1.005-0.048,1.492-0.962,2.132-1.74C780.203,444.049,779.562,443.126,779.273,442.244z"/>
	<path d="M794.436,452.094c-4.163,0.381-5.808-3.402-6.48-6.902c-0.09-0.934-0.364-1.84-0.811-2.665
		c-0.492-0.847-1.472-1.28-2.43-1.077c-0.77,0.244-1.263,1.004-1.789,1.619c0.752,0.07,1.428,0.487,1.83,1.127
		c0.457,0.827,0.748,1.735,0.859,2.673c0.655,3.5,2.301,7.29,6.48,6.901c1.65-0.176,3.177-0.965,4.275-2.209
		C795.76,451.843,795.105,452.023,794.436,452.094z"/>
</g>
<path fill="#D6D6D6" d="M299.606,384.288c-36.92-6.48-79.842-5.346-126.117,0c9.388-53.233,9.825-105.381,0-156.273h126.117
	C308.921,279.689,308.921,332.613,299.606,384.288z"/>
<rect x="218.112" y="219.104" fill="#3F3D56" width="43.87" height="14.394"/>
<rect x="408.235" y="425.314" fill="#6C63FF" width="77.76" height="10.529"/>
<rect x="408.235" y="447.185" fill="#6C63FF" width="77.76" height="10.529"/>
<rect x="511.915" y="109.415" fill="#6C63FF" width="77.761" height="10.53"/>
<rect x="511.915" y="131.285" fill="#6C63FF" width="77.761" height="10.53"/>
<rect x="200.875" y="256.835" fill="#6C63FF" width="77.761" height="10.53"/>
<path fill="#6C63FF" d="M197.279,658.496l15.503-9.111c-2.098-3.581-4.776-6.787-7.93-9.486l-29.25,9.098l22.923-13.479
	c-18.047-9.886-40.693-3.27-50.579,14.778c-3.007,5.488-4.583,11.646-4.583,17.904c0,20.583,16.678,21.297,37.26,21.297
	c20.583,0,37.261-0.714,37.261-21.297c0.007-5.206-1.083-10.356-3.2-15.113L197.279,658.496z"/>
<path opacity="0.1" enable-background="new    " d="M201.224,678.504c-1.649-1.654-3.493-3.104-5.492-4.316
	c-2.819-1.871-5.727-3.775-9.047-4.414c-2.917-0.553-5.921-0.082-8.911-0.252c-5.154-0.318-10.007-2.541-13.616-6.237
	c-2.114-2.194-3.783-4.859-6.326-6.552c-2.746-1.806-6.229-2.196-9.485-1.742c-0.945,0.135-1.881,0.326-2.803,0.574
	c-1.463,4.054-2.208,8.328-2.203,12.637c0,20.582,16.678,21.297,37.26,21.297c9.986,0,19.051-0.171,25.741-2.699l-1.093-2.049
	C204.18,682.505,202.828,680.404,201.224,678.504z"/>
<path fill="#6C63FF" d="M578.125,628.779l-20.566-12.07c2.787-4.747,6.346-8.999,10.529-12.58l38.792,12.062l-30.399-17.87
	c23.932-13.111,53.962-4.339,67.073,19.593c3.99,7.281,6.081,15.449,6.077,23.752c0,27.288-22.121,28.229-49.41,28.229
	c-27.287,0-49.409-0.939-49.409-28.229c-0.021-6.921,1.417-13.77,4.221-20.098L578.125,628.779z"/>
<path opacity="0.1" enable-background="new    " d="M572.884,655.307c2.197-2.19,4.644-4.111,7.29-5.728
	c3.734-2.47,7.6-5.006,11.998-5.849c3.863-0.736,7.846-0.111,11.777-0.34c6.838-0.414,13.279-3.362,18.062-8.27
	c2.803-2.908,5.014-6.48,8.393-8.692c3.635-2.429,8.252-2.899,12.569-2.308c1.255,0.185,2.5,0.439,3.728,0.762
	c1.937,5.377,2.922,11.051,2.916,16.766c0,27.289-22.121,28.23-49.41,28.23c-13.243,0-25.264-0.221-34.143-3.565l1.483-2.771
	C568.97,660.583,570.765,657.816,572.884,655.307z"/>
</svg>
