<?xml version="1.0" encoding="utf-8"?>
<!-- Generator: Adobe Illustrator 13.0.0, SVG Export Plug-In . SVG Version: 6.00 Build 14948)  -->
<!DOCTYPE svg PUBLIC "-//W3C//DTD SVG 1.1//EN" "http://www.w3.org/Graphics/SVG/1.1/DTD/svg11.dtd">
<svg version="1.1" id="a97f4f18-b594-445c-bff7-5523e3bdff5d"
	 xmlns="http://www.w3.org/2000/svg" xmlns:xlink="http://www.w3.org/1999/xlink" x="0px" y="0px" width="1046px"
	 height="638.584px" viewBox="0 0 1046 638.584" enable-background="new 0 0 1046 638.584" xml:space="preserve">
<title>ready_to_print</title>
<rect x="113.474" y="662.029" fill="#2F2E41" width="827.604" height="2.555"/>
<rect y="51.322" fill="#3F3D56" width="281.42" height="281.419"/>
<path fill="#6C63FF" d="M281.42,121.338v6.459c-4.289-2.842-7.751-6.766-10.036-11.375c-3.747-7.663-3.628-16.495-3.509-25.04
	c0.135-10.155,0.271-19.733-6.171-25.972c-7.086-6.849-18.428-5.883-29.396-4.95c-1.289,0.102-2.577,0.22-3.849,0.322
	c-11.002,0.831-23.259-1.95-29.21-9.46h7.425c5.442,3.662,13.766,4.95,21.412,4.374c1.238-0.085,2.509-0.204,3.781-0.305
	c11.545-0.983,24.633-2.103,33.363,6.357c8.036,7.764,7.883,18.919,7.731,29.702c-0.119,7.951-0.221,16.156,3,22.734
	C277.297,116.901,279.152,119.331,281.42,121.338z"/>
<path fill="#6C63FF" d="M281.42,166.009v7.561c-1.235-1.614-2.62-3.106-4.137-4.458c-8.748-7.714-21.31-9.409-33.448-11.07
	c-1.577-0.204-3.119-0.424-4.662-0.645c-19.683-2.831-31.889-9.595-37.296-20.632c-3.747-7.663-3.628-16.495-3.509-25.039
	c0.136-10.155,0.271-19.733-6.171-25.972c-7.086-6.849-18.428-5.883-29.396-4.95c-1.289,0.102-2.577,0.22-3.849,0.322
	c-14.139,1.068-30.363-3.831-32.583-17.071c-0.763-4.543,0.373-8.714,2.051-12.732h5.561c-1.865,4.035-3.255,7.934-2.594,11.884
	c1.678,10.104,15.274,13.732,27.192,12.833c1.238-0.084,2.509-0.203,3.781-0.305c11.545-0.983,24.633-2.102,33.363,6.357
	c8.036,7.765,7.883,18.92,7.731,29.702c-0.119,7.951-0.221,16.156,3,22.734c4.611,9.426,15.546,15.257,33.448,17.834
	c1.526,0.22,3.068,0.441,4.611,0.644c12.884,1.746,26.226,3.56,36.144,12.291C280.911,165.517,281.166,165.754,281.42,166.009z"/>
<path fill="#6C63FF" d="M281.42,293.461v10.443c-6.12-6.51-11.24-15.444-15.156-26.616c-0.831-2.373-1.627-4.797-2.424-7.222
	c-4.391-13.274-8.934-26.989-19.75-35.754c-11.562-9.358-28.125-11.426-44.146-13.427c-2.052-0.254-4.103-0.509-6.137-0.78
	c-25.972-3.441-42.061-11.63-49.198-25.023c-4.95-9.307-4.797-20.021-4.645-30.379c0.187-12.308,0.373-23.938-8.137-31.499
	c-9.341-8.307-24.311-7.137-38.771-6.001c-1.712,0.135-3.408,0.271-5.069,0.39c-18.666,1.289-40.077-4.645-42.993-20.7
	c-1.441-7.866,2.238-14.834,5.781-21.581c2.034-3.865,3.967-7.544,4.95-11.325c2.068-7.781-0.492-16.546-6.171-22.666h8.307
	c4.849,7.042,6.448,15.825,4.391,24.124c-1.17,4.425-3.34,8.562-5.442,12.562c-3.238,6.137-6.273,11.935-5.205,17.868
	c2.238,12.24,20.157,16.648,35.873,15.563c1.645-0.119,3.323-0.254,5.001-0.373c15.224-1.204,32.482-2.543,44.01,7.714
	c10.595,9.409,10.392,22.937,10.188,36.008c-0.136,9.646-0.288,19.598,3.95,27.583c6.086,11.41,20.53,18.496,44.146,21.632
	c2,0.271,4.035,0.525,6.069,0.78c17.021,2.119,34.601,4.306,47.672,14.901c12.257,9.935,17.088,24.497,21.733,38.585
	c0.797,2.408,1.594,4.781,2.408,7.137C274.811,281.768,277.755,287.833,281.42,293.461z"/>
<path fill="#6C63FF" d="M0,164.958c7.73,9.358,24.124,12.816,38.822,11.799c1.662-0.118,3.357-0.254,5.069-0.39
	c14.461-1.136,29.431-2.306,38.771,6.001c8.511,7.561,8.324,19.191,8.138,31.499c-0.153,10.358-0.305,21.073,4.645,30.38
	c7.137,13.393,23.226,21.581,49.198,25.022c2.034,0.271,4.085,0.525,6.137,0.78c16.021,2,32.584,4.069,44.146,13.427
	c10.816,8.765,15.359,22.48,19.75,35.754c0.797,2.424,1.594,4.849,2.424,7.222c0.763,2.188,1.577,4.271,2.424,6.289h7.256
	c-1.271-2.763-2.356-5.526-3.289-8.171c-0.813-2.356-1.61-4.729-2.407-7.137c-4.645-14.088-9.477-28.65-21.733-38.585
	c-13.071-10.596-30.651-12.783-47.672-14.902c-2.035-0.254-4.069-0.508-6.069-0.78c-23.616-3.136-38.06-10.223-44.146-21.632
	c-4.238-7.985-4.086-17.937-3.95-27.583c0.204-13.071,0.407-26.599-10.188-36.008c-11.528-10.256-28.787-8.917-44.01-7.713
	c-1.678,0.119-3.356,0.254-5.001,0.373c-15.715,1.085-33.635-3.323-35.873-15.563c-1.068-5.934,1.966-11.731,5.205-17.869
	c2.102-4.001,4.272-8.137,5.442-12.562C16.275,112.505,10.901,99.096,0,91.772v8.307c5.951,6.137,8.663,15.105,6.561,23.073
	c-0.983,3.781-2.916,7.459-4.95,11.325c-0.542,1.034-1.085,2.051-1.611,3.103V164.958z"/>
<path fill="#6C63FF" d="M124.486,332.741h-7.036c-0.373-1.102-0.729-2.221-1.102-3.34c-4.391-13.273-8.935-26.989-19.75-35.753
	c-11.562-9.358-28.125-11.426-44.146-13.427c-2.051-0.254-4.103-0.509-6.137-0.78C23.395,276.407,8.154,269.66,0,258.911v-16.868
	c0.524,3.368,1.583,6.63,3.136,9.663c6.086,11.41,20.53,18.496,44.146,21.632c2,0.271,4.035,0.525,6.069,0.78
	c17.021,2.119,34.601,4.306,47.672,14.901c12.257,9.935,17.088,24.498,21.734,38.585
	C123.333,329.334,123.893,331.046,124.486,332.741z"/>
<rect x="381.442" y="51.322" fill="#3F3D56" width="281.42" height="281.419"/>
<path fill="#6C63FF" d="M517.066,71.666c-0.004,49.627-40.237,89.854-89.864,89.851c-16.101-0.001-31.904-4.328-45.76-12.528V51.322
	h133.302C516.296,57.992,517.075,64.817,517.066,71.666z"/>
<circle fill="#6C63FF" cx="589.965" cy="127.61" r="54.25"/>
<circle fill="#6C63FF" cx="467.902" cy="242.891" r="38.992"/>
<path fill="#6C63FF" d="M662.862,286.629v46.112H607.07c-6.553-20.515,4.767-42.458,25.282-49.01
	C642.491,280.493,653.514,281.54,662.862,286.629L662.862,286.629z"/>
<circle fill="#6C63FF" cx="566.23" cy="241.195" r="10.172"/>
<rect x="764.58" y="51.322" fill="#3F3D56" width="281.42" height="281.419"/>
<path fill="#6C63FF" d="M901.899,51.322v115.28H764.58v6.781h144.101V51.322H901.899z"/>
<path fill="#6C63FF" d="M1034.354,332.741L1046,316.179v-11.783l-19.937,28.345H1034.354z M987.055,211.392l-62.404,88.749
	l46.366,32.6h11.782l-48.706-34.245l54.606-77.662L1046,261.132v-8.29L987.055,211.392z"/>
<path fill="#6C63FF" d="M883.251,200.152l-35.957,35.957l35.957,35.958l35.958-35.958L883.251,200.152z M856.872,236.109
	l26.379-26.379l26.379,26.379l-26.379,26.379L856.872,236.109z"/>
<circle fill="#F2F2F2" cx="137.934" cy="51.543" r="25.543"/>
<circle fill="#F2F2F2" cx="532.579" cy="51.543" r="25.543"/>
<circle fill="#F2F2F2" cx="909.343" cy="51.543" r="25.543"/>
<circle fill="#FFB8B8" cx="506.396" cy="176.067" r="24.266"/>
<path fill="#FFB8B8" d="M493.625,187.562c0,0,6.386,33.207,3.832,39.592c-2.555,6.386,35.76-2.554,35.76-2.554
	s-7.662-33.207-6.386-40.87C528.108,176.067,493.625,187.562,493.625,187.562z"/>
<polygon fill="#FFB8B8" points="451.479,302.507 454.033,336.99 466.71,391.146 470.636,405.957 477.021,382.968 470.636,330.604 
	468.467,307.029 "/>
<path fill="#FFB8B8" d="M585.581,297.398v35.761c0,0-3.831,45.978-11.494,57.473c-7.663,11.494-10.218-45.979-10.218-45.979
	l6.005-42.146L585.581,297.398z"/>
<path fill="#2F2E41" d="M471.913,408.512c0,0-6.386,7.663-1.277,85.57c5.109,77.907-2.554,134.103,14.049,134.103
	c0,0-5.108,16.603,8.94,17.88s20.435,2.555,21.712-1.277c1.277-3.831,3.832-21.711,0-21.711c0,0,0,5.108,2.555-15.326
	c2.554-20.435,2.554-117.5,8.94-130.271l20.435,47.255c0,0,0,21.712,3.831,31.93s10.218,68.967,10.218,68.967l-1.277,8.94
	c0,0,30.651,5.108,31.929,0s1.277-12.771,0-15.326s-1.277-2.555,1.277-7.663s2.555-8.94,1.277-12.771s-1.277-86.848-1.277-86.848
	s-2.555-100.896-17.88-106.005C560.038,400.849,471.913,408.512,471.913,408.512z"/>
<path fill="#2F2E41" d="M488.517,635.848l-10.218,17.88c0,0-15.964-5.747-12.771,8.94c27.459,1.916,46.617-0.639,46.617-0.639
	s6.386,2.555,7.662-1.277c1.277-3.831-3.192-17.241-7.023-17.241C508.951,643.511,488.517,635.848,488.517,635.848z"/>
<path fill="#2F2E41" d="M562.592,630.738c0,0-10.217,22.989-6.386,24.267c3.832,1.277,38.315,6.386,40.869,7.663
	c2.555,1.277,15.326,2.555,16.604-5.108s-6.386-10.218-6.386-10.218s-14.049-2.555-17.881-15.326
	C585.581,619.244,562.592,630.738,562.592,630.738z"/>
<path fill="#8985A8" d="M535.771,220.768c0,0-34.483-6.386-42.146,0s-39.592,19.158-39.592,25.543s16.603,68.967,16.603,68.967
	s-8.939,94.51,0,97.064c8.94,2.555,24.267-5.108,42.147,3.832c17.88,8.939,68.967-7.663,68.967-7.663s-19.158-81.739-14.049-97.065
	c5.108-15.326,8.939-67.69,8.939-67.69S554.93,220.768,535.771,220.768z"/>
<path fill="#8985A8" d="M462.973,242.48l-8.939,2.554c0,0-19.158,60.027-11.495,62.581c7.663,2.555,29.375,7.663,31.93,7.663
	C477.021,315.278,462.973,242.48,462.973,242.48z"/>
<path fill="#8985A8" d="M556.206,236.094l20.435,7.663c0,0,26.821,49.81,20.436,56.195c-6.387,6.386-34.484,12.772-34.484,12.772
	L556.206,236.094z"/>
<path fill="#2F2E41" d="M505.66,146.095c-2.019-0.365-4.093-0.274-6.07,0.268c-1.583,0.701-3.041,1.657-4.314,2.83
	c-2.311,1.841-4.778,3.477-7.376,4.887c-2.069,1.124-4.294,2.164-5.738,4.023c-0.684,0.939-1.229,1.972-1.62,3.066
	c-2.489,6.356-3.158,13.281-1.932,19.996c0.138,0.954,0.425,1.88,0.851,2.746c1.327,2.446,4.26,3.409,6.729,4.691
	c4.688,2.434,8.243,6.533,12.089,10.155c1.429,1.426,3.034,2.663,4.776,3.681c5.487,2.992,12.193,2.016,18.353,0.958
	c1.826-0.003,3.305-1.487,3.301-3.313c0-0.009,0-0.017,0-0.025l4.861-21.866c0.881-3.24,1.301-6.587,1.246-9.945
	c-0.339-5.308-3.213-12.66-7.108-16.431C519.168,147.422,511.593,146.723,505.66,146.095z"/>
</svg>
